<svg width="15" height="16" viewBox="0 0 15 16" fill="none" xmlns="http://www.w3.org/2000/svg">
<path d="M0.5 1L14.5 1L14.5 15L0.5 15L0.5 1Z" fill="white"/>
<g clip-path="url(#clip0_635_77787)">
<path d="M7.25798 9.2962L7.49343 9.53115L7.72888 9.2962L10.592 6.43913L10.3566 6.20317L10.5961 6.435C10.6269 6.40324 10.6637 6.37787 10.7044 6.3604C10.7452 6.34294 10.789 6.33373 10.8334 6.33335C10.8778 6.33296 10.9218 6.3414 10.9629 6.35816C11.0039 6.37492 11.0412 6.39965 11.0725 6.43088C11.1038 6.4621 11.1285 6.49919 11.1452 6.53996C11.1619 6.58073 11.1703 6.62439 11.1699 6.6684C11.1695 6.71241 11.1604 6.75592 11.1429 6.79639C11.1255 6.83687 11.1002 6.87353 11.0683 6.90421L11.0683 6.90417L11.0642 6.90827L7.72954 10.2358C7.72953 10.2358 7.72952 10.2358 7.72951 10.2359C7.667 10.2982 7.5821 10.3333 7.49343 10.3333C7.40476 10.3333 7.31986 10.2982 7.25736 10.2359C7.25735 10.2358 7.25733 10.2358 7.25732 10.2358L3.92507 6.91066C3.86544 6.84816 3.8326 6.76507 3.83335 6.67899C3.8341 6.59212 3.86902 6.50888 3.93079 6.44724C3.99259 6.38557 4.07634 6.35046 4.16403 6.3497C4.25093 6.34895 4.33454 6.38198 4.39722 6.44153L7.25798 9.2962Z" fill="#647696" stroke="#647696" stroke-width="0.666667"/>
</g>
<path d="M0.5 1L0.5 0.5L0 0.5L0 1L0.5 1ZM14.5 1L15 1V0.5L14.5 0.5V1ZM14.5 15V15.5H15V15H14.5ZM0.5 15H0L0 15.5H0.5L0.5 15ZM0.5 1.5L14.5 1.5V0.5L0.5 0.5L0.5 1.5ZM14 1L14 15H15L15 1L14 1ZM14.5 14.5L0.5 14.5L0.5 15.5L14.5 15.5V14.5ZM1 15L1 1L0 1L0 15H1Z" fill="#F5F5F5"/>
<defs>
<clipPath id="clip0_635_77787">
<rect width="8" height="8" fill="white" transform="translate(3.5 4)"/>
</clipPath>
</defs>
</svg>
