<svg width="12" height="12" viewBox="0 0 12 12" fill="none" xmlns="http://www.w3.org/2000/svg">
<path d="M4.20067 4.27707C4.42034 4.0574 4.77649 4.0574 4.99616 4.27707L5.92424 5.20515L6.85189 4.27751C7.07156 4.05784 7.42771 4.05784 7.64738 4.27751C7.86705 4.49718 7.86705 4.85333 7.64738 5.073L6.71973 6.00065L7.64781 6.92873C7.86748 7.1484 7.86748 7.50455 7.64781 7.72422C7.42814 7.94389 7.07199 7.94389 6.85232 7.72422L5.92424 6.79614L4.99681 7.72357C4.77714 7.94324 4.42098 7.94324 4.20131 7.72357C3.98164 7.5039 3.98164 7.14775 4.20131 6.92808L5.12875 6.00065L4.20067 5.07257C3.981 4.8529 3.981 4.49674 4.20067 4.27707Z" fill="#647696"/>
<path fill-rule="evenodd" clip-rule="evenodd" d="M0 12V0H12V12H0ZM5.25 1.5H1.5V5.25H2.63382C2.52191 5.74325 2.52191 6.25675 2.63382 6.75H1.5V10.5H5.25V9.30721C5.7453 9.40781 6.25882 9.39644 6.75 9.27312V10.5H10.5V6.75H9.21595C9.32787 6.25675 9.32787 5.74325 9.21595 5.25H10.5V1.5H6.75V2.72688C6.25882 2.60356 5.7453 2.59219 5.25 2.69279V1.5Z" fill="#647696"/>
</svg>
