<svg width="12" height="12" viewBox="0 0 12 12" fill="none" xmlns="http://www.w3.org/2000/svg">
<path d="M3 12H1.5V11.25H3V12Z" fill="#647696"/>
<path d="M0.75 12H0V11.25H0.75V12Z" fill="#647696"/>
<path d="M2.98023e-08 9.75L0 10.5833L0.75 10.5833V9.75H2.98023e-08Z" fill="#647696"/>
<path fill-rule="evenodd" clip-rule="evenodd" d="M12 12V1.43097e-07L3.75 4.47185e-08V0.75H5.25V11.25H3.75V12H12ZM6.75 6.75V10.5H10.5V6.75H6.75ZM10.5 5.25V1.5L6.75 1.5V5.25H10.5Z" fill="#647696"/>
<path d="M0.75 1.41667V2.25H1.19209e-07V1.41667H0.75Z" fill="#647696"/>
<path d="M0.75 8.94397e-09L1.19209e-07 0V0.75H0.75L0.75 8.94397e-09Z" fill="#647696"/>
<path d="M1.5 1.78879e-08V0.75H3V3.57732e-08L1.5 1.78879e-08Z" fill="#647696"/>
<path d="M0.390308 4.28829C0.609978 4.06862 0.966133 4.06862 1.1858 4.28829L2.11388 5.21636L3.04152 4.28872C3.26119 4.06905 3.61735 4.06905 3.83702 4.28872C4.05669 4.50839 4.05669 4.86454 3.83702 5.08421L2.90937 6.01186L3.83745 6.93994C4.05712 7.15961 4.05712 7.51576 3.83745 7.73543C3.61778 7.9551 3.26163 7.9551 3.04196 7.73543L2.11388 6.80735L1.18644 7.73478C0.966774 7.95445 0.610619 7.95445 0.390949 7.73478C0.171279 7.51511 0.171279 7.15896 0.390949 6.93929L1.31838 6.01186L0.390308 5.08378C0.170638 4.86411 0.170638 4.50796 0.390308 4.28829Z" fill="#647696"/>
</svg>
