<svg width="12" height="12" viewBox="0 0 12 12" fill="none" xmlns="http://www.w3.org/2000/svg">
<path d="M0 3V1.5H0.75V3H0Z" fill="#647696"/>
<path d="M0 0.75V0H0.75V0.75H0Z" fill="#647696"/>
<path d="M2.25 0H1.41667V0.75H2.25V0Z" fill="#647696"/>
<path fill-rule="evenodd" clip-rule="evenodd" d="M0 12H12V3.75H11.25V5.25H0.75V3.75H0V12ZM5.25 6.75H1.5V10.5H5.25V6.75ZM6.75 10.5H10.5V6.75H6.75V10.5Z" fill="#647696"/>
<path d="M10.5833 0.75H9.75V0H10.5833V0.75Z" fill="#647696"/>
<path d="M12 0.75V0H11.25V0.75L12 0.75Z" fill="#647696"/>
<path d="M12 1.5H11.25V3H12V1.5Z" fill="#647696"/>
<path d="M7.71171 0.390308C7.93138 0.609978 7.93138 0.966133 7.71171 1.1858L6.78364 2.11388L7.71128 3.04152C7.93095 3.26119 7.93095 3.61735 7.71128 3.83702C7.49161 4.05669 7.13546 4.05669 6.91579 3.83702L5.98814 2.90937L5.06006 3.83745C4.84039 4.05712 4.48424 4.05712 4.26457 3.83745C4.0449 3.61778 4.0449 3.26163 4.26457 3.04196L5.19265 2.11388L4.26522 1.18644C4.04555 0.966774 4.04555 0.610619 4.26522 0.390949C4.48489 0.171279 4.84104 0.171279 5.06071 0.390949L5.98814 1.31838L6.91622 0.390308C7.13589 0.170638 7.49204 0.170638 7.71171 0.390308Z" fill="#647696"/>
</svg>
