<svg width="40" height="14" viewBox="0 0 40 14" fill="none" xmlns="http://www.w3.org/2000/svg">
<path d="M0 2C0 0.89543 0.895431 0 2 0L38 0C39.1046 0 40 0.895431 40 2V12C40 13.1046 39.1046 14 38 14L2 14C0.895431 14 0 13.1046 0 12L0 2Z" fill="white"/>
<path d="M23 4.5C23 3.67157 23.6716 3 24.5 3C25.3284 3 26 3.67157 26 4.5C26 5.32843 25.3284 6 24.5 6C23.6716 6 23 5.32843 23 4.5Z" fill="#647696"/>
<path d="M20 3C19.1716 3 18.5 3.67157 18.5 4.5C18.5 5.32843 19.1716 6 20 6C20.8284 6 21.5 5.32843 21.5 4.5C21.5 3.67157 20.8284 3 20 3Z" fill="#647696"/>
<path d="M14 4.5C14 3.67157 14.6716 3 15.5 3C16.3284 3 17 3.67157 17 4.5C17 5.32843 16.3284 6 15.5 6C14.6716 6 14 5.32843 14 4.5Z" fill="#647696"/>
<path d="M23 9.5C23 8.67157 23.6716 8 24.5 8C25.3284 8 26 8.67157 26 9.5C26 10.3284 25.3284 11 24.5 11C23.6716 11 23 10.3284 23 9.5Z" fill="#647696"/>
<path d="M20 8C19.1716 8 18.5 8.67157 18.5 9.5C18.5 10.3284 19.1716 11 20 11C20.8284 11 21.5 10.3284 21.5 9.5C21.5 8.67157 20.8284 8 20 8Z" fill="#647696"/>
<path d="M14 9.5C14 8.67157 14.6716 8 15.5 8C16.3284 8 17 8.67157 17 9.5C17 10.3284 16.3284 11 15.5 11C14.6716 11 14 10.3284 14 9.5Z" fill="#647696"/>
<path d="M2 1L38 1V-1L2 -1L2 1ZM39 2V12H41V2L39 2ZM38 13L2 13V15L38 15V13ZM1 12L1 2L-1 2L-1 12H1ZM2 13C1.44772 13 1 12.5523 1 12H-1C-1 13.6569 0.343147 15 2 15V13ZM39 12C39 12.5523 38.5523 13 38 13V15C39.6569 15 41 13.6569 41 12H39ZM38 1C38.5523 1 39 1.44772 39 2L41 2C41 0.343146 39.6569 -1 38 -1V1ZM2 -1C0.343146 -1 -1 0.343146 -1 2L1 2C1 1.44772 1.44772 1 2 1L2 -1Z" fill="#F5F5F5"/>
</svg>
