<svg width="36" height="36" viewBox="0 0 36 36" fill="none" xmlns="http://www.w3.org/2000/svg">
<path d="M20 26C18.8954 26 18 25.1046 18 24V19.3333L22 19.3333C22.6667 19.3333 23.3333 19 23.3333 18C23.3333 17 22.6667 16.6667 22 16.6667L18 16.6667V12C18 10.8954 18.8954 10 20 10H24C25.1046 10 26 10.8954 26 12V24C26 25.1046 25.1046 26 24 26H20Z" fill="#647696"/>
<path d="M18 16.6637L15.3333 16.6637L15.3333 14.9895C15.3333 14.1484 14.3586 13.689 13.7091 14.2274L10.3588 17.0694C9.8804 17.466 9.8804 18.5294 10.3588 18.926L13.7091 21.7681C14.3586 22.3066 15.3333 21.8263 15.3333 20.9853L15.3333 19.332L18 19.332L18 16.6637Z" fill="#647696"/>
</svg>
