<svg width="16" height="16" viewBox="0 0 16 16" fill="none" xmlns="http://www.w3.org/2000/svg">
<path d="M10 16C8.89543 16 8 15.1046 8 14V9.33333L12 9.33333C12.6667 9.33333 13.3333 9 13.3333 8C13.3333 7 12.6667 6.66667 12 6.66667L8 6.66667V2C8 0.895431 8.89543 0 10 0H14C15.1046 0 16 0.895431 16 2V14C16 15.1046 15.1046 16 14 16H10Z" fill="#647696"/>
<path d="M8 6.66345L5.33333 6.66345L5.33333 4.98922C5.33333 4.14816 4.35859 3.68871 3.70911 4.22714L0.358801 7.06915C-0.119596 7.46575 -0.119596 8.52919 0.3588 8.92579L3.70911 11.7679C4.35859 12.3063 5.33333 11.8261 5.33333 10.985L5.33333 9.33176L8 9.33176L8 6.66345Z" fill="#647696"/>
</svg>
