<svg width="12" height="11" viewBox="0 0 12 11" fill="none" xmlns="http://www.w3.org/2000/svg">
<path d="M2.9768 4.63375L2.92505 5.13437H4.8626L2.43171 7.66765L0 5.13437H1.84779L1.87572 4.70981C2.04844 2.08494 4.24722 0 6.9293 0C9.72436 0 12 2.2615 12 5.04C12 7.8185 9.72436 10.08 6.9293 10.08C6.62617 10.08 6.38064 9.83596 6.38064 9.53467C6.38064 9.23337 6.62617 8.98934 6.9293 8.98934C9.12006 8.98934 10.9027 7.21797 10.9027 5.04C10.9027 2.86204 9.12006 1.09066 6.9293 1.09066C4.87455 1.09066 3.18228 2.64602 2.9768 4.63375Z" fill="#4E586A"/>
</svg>
