<svg width="12" height="13" viewBox="0 0 12 13" fill="none" xmlns="http://www.w3.org/2000/svg">
<g filter="url(#filter0_d_957_35012)">
<path d="M0 6C0 5.58579 0.335786 5.25 0.75 5.25H3V7.5H0.75C0.335786 7.5 0 7.16421 0 6.75V6Z" fill="white"/>
<path d="M3 1.5C3 0.671573 3.67157 0 4.5 0H10.5C11.3284 0 12 0.671573 12 1.5V10.5C12 11.3284 11.3284 12 10.5 12H4.5C3.67157 12 3 11.3284 3 10.5V7.5H6V8.14872C6 8.7846 6.74164 9.13196 7.23014 8.72488L9.8086 6.57617C10.1684 6.27632 10.1684 5.72368 9.8086 5.42383L7.23014 3.27512C6.74164 2.86804 6 3.2154 6 3.85128L6 5.25H3V1.5Z" fill="white"/>
</g>
<defs>
<filter id="filter0_d_957_35012" x="0" y="0" width="12" height="13" filterUnits="userSpaceOnUse" color-interpolation-filters="sRGB">
<feFlood flood-opacity="0" result="BackgroundImageFix"/>
<feColorMatrix in="SourceAlpha" type="matrix" values="0 0 0 0 0 0 0 0 0 0 0 0 0 0 0 0 0 0 127 0" result="hardAlpha"/>
<feOffset dy="1"/>
<feColorMatrix type="matrix" values="0 0 0 0 0 0 0 0 0 0 0 0 0 0 0 0 0 0 0.16 0"/>
<feBlend mode="normal" in2="BackgroundImageFix" result="effect1_dropShadow_957_35012"/>
<feBlend mode="normal" in="SourceGraphic" in2="effect1_dropShadow_957_35012" result="shape"/>
</filter>
</defs>
</svg>
