<svg width="36" height="36" viewBox="0 0 36 36" fill="none" xmlns="http://www.w3.org/2000/svg">
<path d="M10 18C10 17.4477 10.4477 17 11 17H14V20H11C10.4477 20 10 19.5523 10 19V18Z" fill="#647696"/>
<path fill-rule="evenodd" clip-rule="evenodd" d="M14 12C14 10.8954 14.8954 10 16 10H24C25.1046 10 26 10.8954 26 12V24C26 25.1046 25.1046 26 24 26H16C14.8954 26 14 25.1046 14 24V20H18V20.865C18 21.7128 18.9889 22.176 19.6402 21.6332L23.0781 18.7682C23.5579 18.3684 23.5579 17.6316 23.0781 17.2318L19.6402 14.3668C18.9889 13.824 18 14.2872 18 15.135L18 17H14V12Z" fill="#647696"/>
</svg>
