<svg width="13" height="9" viewBox="0 0 13 9" fill="none" xmlns="http://www.w3.org/2000/svg">
<path fill-rule="evenodd" clip-rule="evenodd" d="M0.640832 3.8901C1.60503 2.10396 3.72573 -6.60542e-05 6.48559 1.55387e-09C9.26505 6.65294e-05 11.4149 2.1553 12.3645 3.95492C12.5452 4.29719 12.5452 4.70281 12.3645 5.04508C11.4149 6.8447 9.26505 8.99993 6.48559 8.99993C3.76745 8.99993 1.66929 6.6676 0.685353 5.08767C0.457465 4.72175 0.436298 4.26899 0.640832 3.8901ZM6.48558 6.75174C7.75614 6.75174 8.78614 5.74395 8.78614 4.50078C8.78614 3.25761 7.75614 2.24982 6.48558 2.24982C5.21502 2.24982 4.18502 3.25761 4.18502 4.50078C4.18502 5.74395 5.21502 6.75174 6.48558 6.75174Z" fill="#647696"/>
</svg>
