<svg width="12" height="12" viewBox="0 0 12 12" fill="none" xmlns="http://www.w3.org/2000/svg">
<path fill-rule="evenodd" clip-rule="evenodd" d="M1.89163 5.20197C1.89163 3.37372 3.37372 1.89163 5.20197 1.89163C7.03022 1.89163 8.51232 3.37372 8.51232 5.20197C8.51232 7.03022 7.03022 8.51232 5.20197 8.51232C3.37372 8.51232 1.89163 7.03022 1.89163 5.20197ZM5.20197 0C2.329 0 0 2.329 0 5.20197C0 8.07494 2.329 10.4039 5.20197 10.4039C6.29675 10.4039 7.31254 10.0658 8.15057 9.48815L10.3854 11.723C10.7548 12.0923 11.3536 12.0923 11.723 11.723C12.0923 11.3536 12.0923 10.7548 11.723 10.3854L9.48815 8.15057C10.0658 7.31254 10.4039 6.29675 10.4039 5.20197C10.4039 2.329 8.07494 0 5.20197 0Z" fill="#C7D0E1"/>
</svg>
