<svg width="24" height="24" viewBox="0 0 24 24" fill="none" xmlns="http://www.w3.org/2000/svg">
<g clip-path="url(#clip0_5559_17460)">
<path d="M16.2849 15.3048L11.9901 19.5904L7.6954 15.3048C7.50672 15.1229 7.25402 15.0223 6.99171 15.0246C6.72941 15.0268 6.4785 15.1318 6.29301 15.3169C6.10753 15.502 6.00232 15.7524 6.00004 16.0141C5.99776 16.2759 6.09859 16.528 6.28083 16.7163L11.2829 21.7077C11.4705 21.8949 11.7249 22 11.9901 22C12.2554 22 12.5098 21.8949 12.6974 21.7077L17.6995 16.7163C17.795 16.6242 17.8712 16.5141 17.9237 16.3923C17.9761 16.2705 18.0037 16.1395 18.0048 16.007C18.006 15.8744 17.9807 15.7429 17.9304 15.6203C17.8801 15.4976 17.8058 15.3861 17.7119 15.2924C17.6179 15.1987 17.5062 15.1245 17.3833 15.0743C17.2603 15.0241 17.1286 14.9989 16.9958 15C16.8629 15.0012 16.7317 15.0287 16.6096 15.081C16.4876 15.1334 16.3772 15.2094 16.2849 15.3048Z" fill="#647696"/>
<path fill-rule="evenodd" clip-rule="evenodd" d="M6.28083 16.7163C6.09859 16.528 5.99776 16.2759 6.00004 16.0141C6.00232 15.7524 6.10753 15.502 6.29301 15.3169C6.4785 15.1318 6.72941 15.0268 6.99171 15.0246C7.25402 15.0223 7.50672 15.1229 7.6954 15.3048L11.9901 19.5904L16.2849 15.3048L16.9901 16.0115L16.9993 16.0023L17.0024 15.9993L16.2849 15.3048C16.3772 15.2094 16.4876 15.1334 16.6096 15.081C16.7317 15.0287 16.8629 15.0012 16.9958 15C17.1286 14.9989 17.2603 15.0241 17.3833 15.0743C17.5062 15.1245 17.6179 15.1987 17.7119 15.2924C17.8058 15.3861 17.8801 15.4976 17.9304 15.6203C17.9807 15.7429 18.006 15.8744 18.0048 16.007C18.0037 16.1395 17.9761 16.2705 17.9237 16.3923C17.8712 16.5141 17.795 16.6242 17.6995 16.7163L12.6974 21.7077C12.5098 21.8949 12.2554 22 11.9901 22C11.7249 22 11.4705 21.8949 11.2829 21.7077L6.28083 16.7163ZM6.99936 16.0248C6.99936 16.0248 6.99936 16.0248 6.99936 16.0248Z" fill="#647696"/>
</g>
<g clip-path="url(#clip1_5559_17460)">
<path d="M7.7151 8.69524L12.0099 4.40963L16.3046 8.69524C16.4933 8.87708 16.746 8.9777 17.0083 8.97543C17.2706 8.97315 17.5215 8.86817 17.707 8.68308C17.8925 8.49799 17.9977 8.24761 18 7.98586C18.0022 7.72412 17.9014 7.47195 17.7192 7.28367L12.7171 2.29228C12.5295 2.10513 12.2751 2 12.0099 2C11.7446 2 11.4902 2.10513 11.3026 2.29228L6.30053 7.28367C6.20498 7.37576 6.12877 7.48591 6.07634 7.60771C6.02391 7.7295 5.99631 7.8605 5.99515 7.99305C5.994 8.1256 6.01931 8.25705 6.06961 8.37974C6.11992 8.50242 6.1942 8.61388 6.28813 8.70761C6.38206 8.80134 6.49376 8.87547 6.6167 8.92566C6.73965 8.97585 6.87138 9.00111 7.00422 8.99996C7.13705 8.99881 7.26832 8.97127 7.39038 8.91895C7.51243 8.86663 7.62282 8.79058 7.7151 8.69524Z" fill="#647696"/>
<path fill-rule="evenodd" clip-rule="evenodd" d="M17.7192 7.28367C17.9014 7.47195 18.0022 7.72412 18 7.98586C17.9977 8.24761 17.8925 8.49799 17.707 8.68308C17.5215 8.86817 17.2706 8.97315 17.0083 8.97543C16.746 8.9777 16.4933 8.87708 16.3046 8.69524L12.0099 4.40963L7.7151 8.69524L7.0099 7.98852L7.00073 7.99767L6.99756 8.00073L7.7151 8.69524C7.62282 8.79058 7.51243 8.86663 7.39038 8.91895C7.26832 8.97127 7.13705 8.99881 7.00422 8.99996C6.87138 9.00111 6.73965 8.97585 6.6167 8.92566C6.49376 8.87547 6.38206 8.80134 6.28813 8.70761C6.1942 8.61388 6.11992 8.50242 6.06961 8.37974C6.01931 8.25705 5.994 8.1256 5.99515 7.99305C5.99631 7.8605 6.02391 7.7295 6.07634 7.60771C6.12877 7.48591 6.20498 7.37576 6.30053 7.28367L11.3026 2.29228C11.4902 2.10513 11.7446 2 12.0099 2C12.2751 2 12.5295 2.10513 12.7171 2.29228L17.7192 7.28367ZM17.0006 7.97522C17.0006 7.97522 17.0006 7.97522 17.0006 7.97522Z" fill="#647696"/>
</g>
<defs>
<clipPath id="clip0_5559_17460">
<rect width="12" height="12" fill="white" transform="translate(6 12)"/>
</clipPath>
<clipPath id="clip1_5559_17460">
<rect width="12" height="12" fill="white" transform="translate(6)"/>
</clipPath>
</defs>
</svg>
