<svg width="6" height="4" viewBox="0 0 6 4" fill="none" xmlns="http://www.w3.org/2000/svg">
<path d="M0.857064 3.34762L3.00444 1.20482L5.15181 3.34762C5.24615 3.43854 5.3725 3.48885 5.50365 3.48771C5.63481 3.48658 5.76026 3.43408 5.85301 3.34154C5.94575 3.24899 5.99835 3.1238 5.99949 2.99293C6.00063 2.86206 5.95022 2.73598 5.8591 2.64184L3.35808 0.146141C3.26428 0.0525673 3.13707 1.15954e-08 3.00444 0C2.8718 -1.15954e-08 2.7446 0.0525672 2.65079 0.146141L0.149777 2.64184C0.102002 2.68788 0.0638951 2.74296 0.03768 2.80385C0.0114649 2.86475 -0.0023338 2.93025 -0.00291078 2.99652C-0.00348824 3.0628 0.00916797 3.12853 0.0343187 3.18987C0.0594695 3.25121 0.0966113 3.30694 0.143576 3.35381C0.190542 3.40067 0.246391 3.43773 0.307864 3.46283C0.369337 3.48793 0.435203 3.50056 0.50162 3.49998C0.568037 3.4994 0.633674 3.48564 0.694701 3.45948C0.755727 3.43332 0.810922 3.39529 0.857064 3.34762Z" fill="#647696"/>
<path fill-rule="evenodd" clip-rule="evenodd" d="M5.8591 2.64184C5.95022 2.73598 6.00063 2.86206 5.99949 2.99293C5.99835 3.1238 5.94575 3.24899 5.85301 3.34154C5.76026 3.43408 5.63481 3.48658 5.50365 3.48771C5.3725 3.48885 5.24615 3.43854 5.15181 3.34762L3.00444 1.20482L0.857064 3.34762L0.50446 2.99426L0.499878 2.99883L0.498291 3.00036L0.857064 3.34762C0.810922 3.39529 0.755727 3.43332 0.694701 3.45948C0.633674 3.48564 0.568037 3.4994 0.50162 3.49998C0.435203 3.50056 0.369337 3.48793 0.307864 3.46283C0.246391 3.43773 0.190542 3.40067 0.143576 3.35381C0.0966113 3.30694 0.0594695 3.25121 0.0343187 3.18987C0.00916797 3.12853 -0.00348824 3.0628 -0.00291078 2.99652C-0.0023338 2.93025 0.0114649 2.86475 0.03768 2.80385C0.0638951 2.74296 0.102002 2.68788 0.149777 2.64184L2.65079 0.146141C2.7446 0.0525672 2.8718 -1.15954e-08 3.00444 0C3.13707 1.15954e-08 3.26428 0.0525673 3.35808 0.146141L5.8591 2.64184ZM5.49983 2.98761C5.49983 2.98761 5.49983 2.98761 5.49983 2.98761V2.98761Z" fill="#647696"/>
</svg>
