<svg width="12" height="7" viewBox="0 0 12 7" fill="none" xmlns="http://www.w3.org/2000/svg">
<path d="M10.2849 0.304762L5.99015 4.59037L1.6954 0.304762C1.50672 0.122918 1.25402 0.0222973 0.991714 0.0245718C0.729411 0.0268463 0.478496 0.131834 0.293012 0.316923C0.107529 0.502012 0.00231716 0.752392 3.7818e-05 1.01414C-0.00224153 1.27588 0.0985939 1.52805 0.280826 1.71633L5.28286 6.70772C5.47046 6.89487 5.72488 7 5.99015 7C6.25542 7 6.50983 6.89487 6.69744 6.70772L11.6995 1.71633C11.795 1.62424 11.8712 1.51408 11.9237 1.39229C11.9761 1.2705 12.0037 1.1395 12.0048 1.00695C12.006 0.874402 11.9807 0.742949 11.9304 0.620264C11.8801 0.497579 11.8058 0.38612 11.7119 0.292389C11.6179 0.198658 11.5062 0.124533 11.3833 0.0743383C11.2603 0.024144 11.1286 -0.00111414 10.9958 3.76917e-05C10.8629 0.00118952 10.7317 0.0287283 10.6096 0.0810471C10.4876 0.133366 10.3772 0.209417 10.2849 0.304762Z" fill="#222222"/>
<path fill-rule="evenodd" clip-rule="evenodd" d="M0.280826 1.71633C0.0985939 1.52805 -0.00224153 1.27588 3.7818e-05 1.01414C0.00231716 0.752392 0.107529 0.502012 0.293012 0.316923C0.478496 0.131834 0.729411 0.0268463 0.991714 0.0245718C1.25402 0.0222973 1.50672 0.122918 1.6954 0.304762L5.99015 4.59037L10.2849 0.304762L10.9901 1.01147L10.9993 1.00233L11.0024 0.999271L10.2849 0.304762C10.3772 0.209417 10.4876 0.133366 10.6096 0.0810471C10.7317 0.0287283 10.8629 0.00118952 10.9958 3.76917e-05C11.1286 -0.00111414 11.2603 0.024144 11.3833 0.0743383C11.5062 0.124533 11.6179 0.198658 11.7119 0.292389C11.8058 0.38612 11.8801 0.497579 11.9304 0.620264C11.9807 0.742949 12.006 0.874402 12.0048 1.00695C12.0037 1.1395 11.9761 1.2705 11.9237 1.39229C11.8712 1.51408 11.795 1.62424 11.6995 1.71633L6.69744 6.70772C6.50983 6.89487 6.25542 7 5.99015 7C5.72488 7 5.47046 6.89487 5.28286 6.70772L0.280826 1.71633ZM0.999363 1.02478C0.999364 1.02478 0.999363 1.02478 0.999363 1.02478V1.02478Z" fill="#222222"/>
</svg>
