<svg width="6" height="4" viewBox="0 0 6 4" fill="none" xmlns="http://www.w3.org/2000/svg">
<path d="M5.14245 0.652381L2.99507 2.79518L0.847701 0.652381C0.753361 0.561459 0.627009 0.511149 0.495857 0.512286C0.364705 0.513423 0.239248 0.565917 0.146506 0.658462C0.0537644 0.751006 0.00115858 0.876196 1.8909e-05 1.00707C-0.00112076 1.13794 0.0492969 1.26403 0.140413 1.35816L2.64143 3.85386C2.73523 3.94743 2.86244 4 2.99507 4C3.12771 4 3.25492 3.94743 3.34872 3.85386L5.84973 1.35816C5.89751 1.31212 5.93562 1.25704 5.96183 1.19615C5.98805 1.13525 6.00185 1.06975 6.00242 1.00348C6.003 0.937201 5.99034 0.871474 5.96519 0.810132C5.94004 0.74879 5.9029 0.69306 5.85594 0.646194C5.80897 0.599329 5.75312 0.562266 5.69165 0.537169C5.63017 0.512072 5.56431 0.499443 5.49789 0.500019C5.43147 0.500595 5.36584 0.514364 5.30481 0.540524C5.24378 0.566683 5.18859 0.604708 5.14245 0.652381Z" fill="#647696"/>
<path fill-rule="evenodd" clip-rule="evenodd" d="M0.140413 1.35816C0.0492969 1.26403 -0.00112076 1.13794 1.8909e-05 1.00707C0.00115858 0.876196 0.0537644 0.751006 0.146506 0.658462C0.239248 0.565917 0.364705 0.513423 0.495857 0.512286C0.627009 0.511149 0.753361 0.561459 0.847701 0.652381L2.99507 2.79518L5.14245 0.652381L5.49505 1.00574L5.49963 1.00117L5.50122 0.999635L5.14245 0.652381C5.18859 0.604708 5.24378 0.566683 5.30481 0.540524C5.36584 0.514364 5.43147 0.500595 5.49789 0.500019C5.56431 0.499443 5.63017 0.512072 5.69165 0.537169C5.75312 0.562266 5.80897 0.599329 5.85594 0.646194C5.9029 0.69306 5.94004 0.74879 5.96519 0.810132C5.99034 0.871474 6.003 0.937201 6.00242 1.00348C6.00185 1.06975 5.98805 1.13525 5.96183 1.19615C5.93562 1.25704 5.89751 1.31212 5.84973 1.35816L3.34872 3.85386C3.25492 3.94743 3.12771 4 2.99507 4C2.86244 4 2.73523 3.94743 2.64143 3.85386L0.140413 1.35816ZM0.499682 1.01239C0.499682 1.01239 0.499681 1.01239 0.499682 1.01239V1.01239Z" fill="#647696"/>
</svg>
