<svg width="12" height="7" viewBox="0 0 12 7" fill="none" xmlns="http://www.w3.org/2000/svg">
<path d="M1.7151 6.69524L6.00985 2.40963L10.3046 6.69524C10.4933 6.87708 10.746 6.9777 11.0083 6.97543C11.2706 6.97315 11.5215 6.86817 11.707 6.68308C11.8925 6.49799 11.9977 6.24761 12 5.98586C12.0022 5.72412 11.9014 5.47195 11.7192 5.28367L6.71714 0.292283C6.52954 0.105135 6.27512 2.31908e-08 6.00985 0C5.74458 -2.31908e-08 5.49017 0.105134 5.30256 0.292283L0.30053 5.28367C0.204981 5.37576 0.128767 5.48591 0.0763366 5.60771C0.0239064 5.7295 -0.00369104 5.8605 -0.004845 5.99305C-0.00599991 6.1256 0.0193125 6.25705 0.069614 6.37974C0.119916 6.50242 0.194199 6.61388 0.288129 6.70761C0.382061 6.80134 0.493758 6.87547 0.616705 6.92566C0.73965 6.97586 0.871383 7.00111 1.00422 6.99996C1.13705 6.99881 1.26832 6.97127 1.39038 6.91895C1.51243 6.86663 1.62282 6.79058 1.7151 6.69524Z" fill="#222222"/>
<path fill-rule="evenodd" clip-rule="evenodd" d="M11.7192 5.28367C11.9014 5.47195 12.0022 5.72412 12 5.98586C11.9977 6.24761 11.8925 6.49799 11.707 6.68308C11.5215 6.86817 11.2706 6.97315 11.0083 6.97543C10.746 6.9777 10.4933 6.87708 10.3046 6.69524L6.00985 2.40963L1.7151 6.69524L1.0099 5.98852L1.00073 5.99767L0.997558 6.00073L1.7151 6.69524C1.62282 6.79058 1.51243 6.86663 1.39038 6.91895C1.26832 6.97127 1.13705 6.99881 1.00422 6.99996C0.871383 7.00111 0.73965 6.97586 0.616705 6.92566C0.493758 6.87547 0.382061 6.80134 0.288129 6.70761C0.194199 6.61388 0.119916 6.50242 0.069614 6.37974C0.0193125 6.25705 -0.00599991 6.1256 -0.004845 5.99305C-0.00369104 5.8605 0.0239064 5.7295 0.0763366 5.60771C0.128767 5.48591 0.204981 5.37576 0.30053 5.28367L5.30256 0.292283C5.49017 0.105134 5.74458 -2.31908e-08 6.00985 0C6.27512 2.31908e-08 6.52954 0.105135 6.71714 0.292283L11.7192 5.28367ZM11.0006 5.97522C11.0006 5.97522 11.0006 5.97522 11.0006 5.97522V5.97522Z" fill="#222222"/>
</svg>
